<svg width="168" height="243" viewBox="0 0 168 243" fill="none" xmlns="http://www.w3.org/2000/svg">
<g filter="url(#filter0_d_5173_28241)">
<g clip-path="url(#clip0_5173_28241)">
<path d="M9 29C9 17.9543 17.9543 9 29 9H139C150.046 9 159 17.9543 159 29V214C159 225.046 150.046 234 139 234H29C17.9543 234 9 225.046 9 214V29Z" fill="url(#paint0_linear_5173_28241)"/>
<rect x="68" y="89" width="32" height="32" rx="8" fill="#CC203B" fill-opacity="0.25"/>
<g clip-path="url(#clip1_5173_28241)">
<path d="M89.8312 99.2332C89.8312 99.671 89.6199 100.104 89.2096 100.509C88.7992 100.913 88.1978 101.281 87.4395 101.59C86.6813 101.9 85.7811 102.145 84.7904 102.313C83.7997 102.48 82.7379 102.567 81.6656 102.567C79.4999 102.567 77.423 102.215 75.8916 101.59C74.3603 100.965 73.5 100.117 73.5 99.2332C73.5 98.7955 73.7112 98.362 74.1216 97.9576C74.5319 97.5532 75.1334 97.1857 75.8916 96.8762C76.6499 96.5667 77.5501 96.3212 78.5407 96.1536C79.5314 95.9861 80.5933 95.8999 81.6656 95.8999C82.7379 95.8999 83.7997 95.9861 84.7904 96.1536C85.7811 96.3212 86.6813 96.5667 87.4395 96.8762C88.1978 97.1857 88.7992 97.5532 89.2096 97.9576C89.6199 98.362 89.8312 98.7955 89.8312 99.2332Z" stroke="#CC203B" stroke-width="1.5" stroke-linecap="round" stroke-linejoin="round"/>
<path d="M89.8312 111.233C89.8312 111.818 89.4539 112.393 88.7372 112.9C88.0205 113.406 86.9897 113.827 85.7484 114.12C84.507 114.412 83.0989 114.566 81.6656 114.566C80.2322 114.566 78.8241 114.412 77.5828 114.12C76.3415 113.827 75.3107 113.406 74.594 112.9C73.8773 112.393 73.5 111.818 73.5 111.233" stroke="#CC203B" stroke-width="1.5" stroke-linecap="round" stroke-linejoin="round"/>
<path d="M89.8312 107.234C89.8312 107.819 89.4539 108.394 88.7372 108.901C88.0205 109.407 86.9897 109.828 85.7484 110.121C84.507 110.413 83.0989 110.567 81.6656 110.567C80.2322 110.567 78.8241 110.413 77.5828 110.121C76.3415 109.828 75.3107 109.407 74.594 108.901C73.8773 108.394 73.5 107.819 73.5 107.234" stroke="#CC203B" stroke-width="1.5" stroke-linecap="round" stroke-linejoin="round"/>
<path d="M89.8312 103.233C89.8312 103.818 89.4539 104.393 88.7372 104.899C88.0205 105.406 86.9897 105.827 85.7484 106.119C84.507 106.412 83.0989 106.566 81.6656 106.566C80.2322 106.566 78.8241 106.412 77.5828 106.119C76.3415 105.827 75.3107 105.406 74.594 104.899C73.8773 104.393 73.5 103.818 73.5 103.233" stroke="#CC203B" stroke-width="1.5" stroke-linecap="round" stroke-linejoin="round"/>
<path d="M73.5 99.2336V111.234" stroke="#CC203B" stroke-width="1.5" stroke-linecap="round" stroke-linejoin="round"/>
<path d="M89.833 99.2336V111.234" stroke="#CC203B" stroke-width="1.5" stroke-linecap="round" stroke-linejoin="round"/>
<path d="M94.5 113.4L98.8301 105.9H90.1699L94.5 113.4ZM94.5 95.8999H93.75V106.65H94.5H95.25V95.8999H94.5Z" fill="#CC203B"/>
</g>
<path d="M42.344 143.252C41.42 143.252 40.6407 143.075 40.006 142.72C39.3807 142.356 38.9047 141.852 38.578 141.208C38.2607 140.555 38.102 139.799 38.102 138.94V132.78H39.474V139.108C39.474 139.677 39.5813 140.181 39.796 140.62C40.02 141.049 40.3467 141.385 40.776 141.628C41.2053 141.871 41.728 141.992 42.344 141.992C42.96 141.992 43.478 141.875 43.898 141.642C44.3273 141.399 44.6493 141.063 44.864 140.634C45.088 140.195 45.2 139.687 45.2 139.108V132.78H46.572V138.94C46.572 139.799 46.4133 140.555 46.096 141.208C45.7787 141.852 45.3073 142.356 44.682 142.72C44.0567 143.075 43.2773 143.252 42.344 143.252ZM52.0189 143.224C51.0389 143.224 50.2782 143.014 49.7369 142.594C49.2049 142.174 48.9295 141.6 48.9109 140.872H50.1709C50.1895 141.161 50.3342 141.437 50.6049 141.698C50.8849 141.95 51.3562 142.076 52.0189 142.076C52.6162 142.076 53.0735 141.959 53.3909 141.726C53.7082 141.483 53.8669 141.189 53.8669 140.844C53.8669 140.536 53.7502 140.298 53.5169 140.13C53.2835 139.953 52.9055 139.836 52.3829 139.78L51.5709 139.696C50.8615 139.621 50.2829 139.411 49.8349 139.066C49.3869 138.711 49.1629 138.217 49.1629 137.582C49.1629 137.106 49.2842 136.7 49.5269 136.364C49.7695 136.019 50.1055 135.757 50.5349 135.58C50.9642 135.393 51.4589 135.3 52.0189 135.3C52.8589 135.3 53.5402 135.487 54.0629 135.86C54.5855 136.233 54.8562 136.789 54.8749 137.526H53.6149C53.6055 137.227 53.4655 136.975 53.1949 136.77C52.9335 136.555 52.5415 136.448 52.0189 136.448C51.4962 136.448 51.0995 136.555 50.8289 136.77C50.5582 136.985 50.4229 137.255 50.4229 137.582C50.4229 137.862 50.5162 138.086 50.7029 138.254C50.8989 138.422 51.2162 138.529 51.6549 138.576L52.4669 138.66C53.2695 138.744 53.9135 138.968 54.3989 139.332C54.8842 139.687 55.1269 140.191 55.1269 140.844C55.1269 141.311 54.9915 141.726 54.7209 142.09C54.4595 142.445 54.0955 142.725 53.6289 142.93C53.1622 143.126 52.6255 143.224 52.0189 143.224ZM60.6727 143.252C60.0194 143.252 59.4547 143.14 58.9787 142.916C58.5027 142.692 58.1154 142.398 57.8167 142.034C57.5181 141.661 57.2941 141.245 57.1447 140.788C57.0047 140.331 56.9347 139.864 56.9347 139.388V139.136C56.9347 138.651 57.0047 138.179 57.1447 137.722C57.2941 137.265 57.5181 136.854 57.8167 136.49C58.1154 136.117 58.4934 135.823 58.9507 135.608C59.4174 135.384 59.9634 135.272 60.5887 135.272C61.4007 135.272 62.0681 135.449 62.5907 135.804C63.1227 136.149 63.5147 136.597 63.7667 137.148C64.0281 137.699 64.1587 138.287 64.1587 138.912V139.514H57.5227V138.506H63.1787L62.8707 139.052C62.8707 138.52 62.7867 138.063 62.6187 137.68C62.4507 137.288 62.1987 136.985 61.8627 136.77C61.5267 136.555 61.1021 136.448 60.5887 136.448C60.0567 136.448 59.6134 136.569 59.2587 136.812C58.9134 137.055 58.6521 137.386 58.4747 137.806C58.3067 138.226 58.2227 138.711 58.2227 139.262C58.2227 139.794 58.3067 140.275 58.4747 140.704C58.6521 141.124 58.9227 141.46 59.2867 141.712C59.6507 141.955 60.1127 142.076 60.6727 142.076C61.2607 142.076 61.7367 141.945 62.1007 141.684C62.4741 141.423 62.6981 141.119 62.7727 140.774H64.0327C63.9301 141.287 63.7247 141.731 63.4167 142.104C63.1087 142.477 62.7214 142.762 62.2547 142.958C61.7881 143.154 61.2607 143.252 60.6727 143.252ZM68.937 143.224C67.957 143.224 67.1963 143.014 66.655 142.594C66.123 142.174 65.8476 141.6 65.829 140.872H67.089C67.1076 141.161 67.2523 141.437 67.523 141.698C67.803 141.95 68.2743 142.076 68.937 142.076C69.5343 142.076 69.9916 141.959 70.309 141.726C70.6263 141.483 70.785 141.189 70.785 140.844C70.785 140.536 70.6683 140.298 70.435 140.13C70.2016 139.953 69.8236 139.836 69.301 139.78L68.489 139.696C67.7796 139.621 67.201 139.411 66.753 139.066C66.305 138.711 66.081 138.217 66.081 137.582C66.081 137.106 66.2023 136.7 66.445 136.364C66.6876 136.019 67.0236 135.757 67.453 135.58C67.8823 135.393 68.377 135.3 68.937 135.3C69.777 135.3 70.4583 135.487 70.981 135.86C71.5036 136.233 71.7743 136.789 71.793 137.526H70.533C70.5236 137.227 70.3836 136.975 70.113 136.77C69.8516 136.555 69.4596 136.448 68.937 136.448C68.4143 136.448 68.0176 136.555 67.747 136.77C67.4763 136.985 67.341 137.255 67.341 137.582C67.341 137.862 67.4343 138.086 67.621 138.254C67.817 138.422 68.1343 138.529 68.573 138.576L69.385 138.66C70.1876 138.744 70.8316 138.968 71.317 139.332C71.8023 139.687 72.045 140.191 72.045 140.844C72.045 141.311 71.9096 141.726 71.639 142.09C71.3776 142.445 71.0136 142.725 70.547 142.93C70.0803 143.126 69.5436 143.224 68.937 143.224ZM71.9343 161.252C71.4023 161.252 70.9123 161.154 70.4643 160.958C70.0163 160.762 69.6243 160.487 69.2883 160.132C68.9616 159.777 68.705 159.367 68.5183 158.9C68.341 158.433 68.2523 157.929 68.2523 157.388V157.136C68.2523 156.604 68.341 156.105 68.5183 155.638C68.6956 155.171 68.943 154.761 69.2603 154.406C69.587 154.051 69.9696 153.776 70.4083 153.58C70.8563 153.375 71.351 153.272 71.8923 153.272C72.4616 153.272 72.9796 153.393 73.4463 153.636C73.913 153.869 74.2956 154.238 74.5943 154.742C74.893 155.246 75.061 155.899 75.0983 156.702L74.5383 155.806V150.78H75.8823V161H74.8183V157.682H75.2103C75.173 158.531 74.9956 159.222 74.6783 159.754C74.361 160.277 73.9596 160.659 73.4743 160.902C72.9983 161.135 72.485 161.252 71.9343 161.252ZM72.1163 160.076C72.5736 160.076 72.989 159.973 73.3623 159.768C73.7356 159.563 74.0343 159.269 74.2583 158.886C74.4823 158.494 74.5943 158.037 74.5943 157.514V156.87C74.5943 156.357 74.4776 155.923 74.2443 155.568C74.0203 155.204 73.717 154.929 73.3343 154.742C72.961 154.546 72.5503 154.448 72.1023 154.448C71.6076 154.448 71.169 154.565 70.7863 154.798C70.413 155.031 70.119 155.358 69.9043 155.778C69.699 156.198 69.5963 156.693 69.5963 157.262C69.5963 157.831 69.7036 158.331 69.9183 158.76C70.133 159.18 70.4316 159.507 70.8143 159.74C71.197 159.964 71.631 160.076 72.1163 160.076ZM83.4066 161V158.76H83.1826V156.17C83.1826 155.657 83.0473 155.269 82.7766 155.008C82.5153 154.747 82.128 154.616 81.6146 154.616C81.3253 154.616 81.0266 154.621 80.7186 154.63C80.4106 154.639 80.1166 154.649 79.8366 154.658C79.5566 154.667 79.314 154.681 79.1086 154.7V153.524C79.314 153.505 79.5286 153.491 79.7526 153.482C79.986 153.463 80.224 153.454 80.4666 153.454C80.7093 153.445 80.9426 153.44 81.1666 153.44C81.932 153.44 82.5573 153.533 83.0426 153.72C83.528 153.897 83.8873 154.191 84.1206 154.602C84.354 155.013 84.4706 155.568 84.4706 156.268V161H83.4066ZM80.9566 161.196C80.3966 161.196 79.9113 161.103 79.5006 160.916C79.0993 160.72 78.7866 160.44 78.5626 160.076C78.348 159.712 78.2406 159.273 78.2406 158.76C78.2406 158.228 78.3573 157.785 78.5906 157.43C78.8333 157.075 79.1833 156.809 79.6406 156.632C80.098 156.445 80.6486 156.352 81.2926 156.352H83.3226V157.36H81.2366C80.6953 157.36 80.28 157.491 79.9906 157.752C79.7013 158.013 79.5566 158.349 79.5566 158.76C79.5566 159.171 79.7013 159.502 79.9906 159.754C80.28 160.006 80.6953 160.132 81.2366 160.132C81.554 160.132 81.8573 160.076 82.1466 159.964C82.436 159.843 82.674 159.647 82.8606 159.376C83.0566 159.096 83.164 158.713 83.1826 158.228L83.5466 158.76C83.5 159.292 83.3693 159.74 83.1546 160.104C82.9493 160.459 82.66 160.729 82.2866 160.916C81.9226 161.103 81.4793 161.196 80.9566 161.196ZM90.2694 161.084C89.7094 161.084 89.224 161.005 88.8134 160.846C88.412 160.687 88.0994 160.417 87.8754 160.034C87.6607 159.642 87.5534 159.115 87.5534 158.452V151.256H88.8414V158.62C88.8414 159.021 88.9487 159.334 89.1634 159.558C89.3874 159.773 89.7 159.88 90.1014 159.88H91.4174V161.084H90.2694ZM86.2654 154.532V153.524H91.4174V154.532H86.2654ZM98.233 161V158.76H98.009V156.17C98.009 155.657 97.8736 155.269 97.603 155.008C97.3416 154.747 96.9543 154.616 96.441 154.616C96.1516 154.616 95.853 154.621 95.545 154.63C95.237 154.639 94.943 154.649 94.663 154.658C94.383 154.667 94.1403 154.681 93.935 154.7V153.524C94.1403 153.505 94.355 153.491 94.579 153.482C94.8123 153.463 95.0503 153.454 95.293 153.454C95.5356 153.445 95.769 153.44 95.993 153.44C96.7583 153.44 97.3836 153.533 97.869 153.72C98.3543 153.897 98.7136 154.191 98.947 154.602C99.1803 155.013 99.297 155.568 99.297 156.268V161H98.233ZM95.783 161.196C95.223 161.196 94.7376 161.103 94.327 160.916C93.9256 160.72 93.613 160.44 93.389 160.076C93.1743 159.712 93.067 159.273 93.067 158.76C93.067 158.228 93.1836 157.785 93.417 157.43C93.6596 157.075 94.0096 156.809 94.467 156.632C94.9243 156.445 95.475 156.352 96.119 156.352H98.149V157.36H96.063C95.5216 157.36 95.1063 157.491 94.817 157.752C94.5276 158.013 94.383 158.349 94.383 158.76C94.383 159.171 94.5276 159.502 94.817 159.754C95.1063 160.006 95.5216 160.132 96.063 160.132C96.3803 160.132 96.6836 160.076 96.973 159.964C97.2623 159.843 97.5003 159.647 97.687 159.376C97.883 159.096 97.9903 158.713 98.009 158.228L98.373 158.76C98.3263 159.292 98.1956 159.74 97.981 160.104C97.7756 160.459 97.4863 160.729 97.113 160.916C96.749 161.103 96.3056 161.196 95.783 161.196Z" fill="black"/>
<path d="M77.9344 143V132.78H79.8804V143H77.9344ZM76.9824 134.236V132.78H79.8804V134.236H76.9824ZM82.886 143V135.398H84.832V143H82.886ZM81.822 136.854V135.398H84.832V136.854H81.822ZM83.6 134.488C83.2173 134.488 82.9327 134.39 82.746 134.194C82.5687 133.989 82.48 133.737 82.48 133.438C82.48 133.121 82.5687 132.864 82.746 132.668C82.9327 132.472 83.2173 132.374 83.6 132.374C83.9827 132.374 84.2627 132.472 84.44 132.668C84.6173 132.864 84.706 133.121 84.706 133.438C84.706 133.737 84.6173 133.989 84.44 134.194C84.2627 134.39 83.9827 134.488 83.6 134.488ZM87.4947 143V135.398H89.0347V138.66H88.8947C88.8947 137.895 88.9927 137.255 89.1887 136.742C89.3847 136.219 89.6741 135.827 90.0567 135.566C90.4487 135.295 90.9341 135.16 91.5127 135.16H91.5967C92.1847 135.16 92.6701 135.295 93.0527 135.566C93.4447 135.827 93.7341 136.219 93.9207 136.742C94.1167 137.255 94.2147 137.895 94.2147 138.66H93.7247C93.7247 137.895 93.8227 137.255 94.0187 136.742C94.2241 136.219 94.5181 135.827 94.9007 135.566C95.2927 135.295 95.7781 135.16 96.3567 135.16H96.4407C97.0287 135.16 97.5187 135.295 97.9107 135.566C98.3027 135.827 98.5967 136.219 98.7927 136.742C98.9981 137.255 99.1007 137.895 99.1007 138.66V143H97.1547V138.478C97.1547 138.002 97.0334 137.624 96.7907 137.344C96.5481 137.055 96.2027 136.91 95.7547 136.91C95.3067 136.91 94.9474 137.059 94.6767 137.358C94.4061 137.647 94.2707 138.039 94.2707 138.534V143H92.3247V138.478C92.3247 138.002 92.2034 137.624 91.9607 137.344C91.7181 137.055 91.3727 136.91 90.9247 136.91C90.4767 136.91 90.1174 137.059 89.8467 137.358C89.5761 137.647 89.4407 138.039 89.4407 138.534V143H87.4947ZM101.964 143V135.398H103.91V143H101.964ZM100.9 136.854V135.398H103.91V136.854H100.9ZM102.678 134.488C102.296 134.488 102.011 134.39 101.824 134.194C101.647 133.989 101.558 133.737 101.558 133.438C101.558 133.121 101.647 132.864 101.824 132.668C102.011 132.472 102.296 132.374 102.678 132.374C103.061 132.374 103.341 132.472 103.518 132.668C103.696 132.864 103.784 133.121 103.784 133.438C103.784 133.737 103.696 133.989 103.518 134.194C103.341 134.39 103.061 134.488 102.678 134.488ZM109.877 143.098C109.177 143.098 108.598 143.009 108.141 142.832C107.693 142.645 107.357 142.337 107.133 141.908C106.909 141.469 106.797 140.881 106.797 140.144L106.811 133.256H108.631L108.617 140.27C108.617 140.643 108.715 140.933 108.911 141.138C109.116 141.334 109.406 141.432 109.779 141.432H110.969V143.098H109.877ZM105.593 136.826V135.398H110.969V136.826H105.593ZM116.383 143.266C115.73 143.266 115.156 143.154 114.661 142.93C114.176 142.706 113.77 142.407 113.443 142.034C113.126 141.651 112.883 141.227 112.715 140.76C112.557 140.293 112.477 139.817 112.477 139.332V139.066C112.477 138.562 112.557 138.077 112.715 137.61C112.883 137.134 113.126 136.714 113.443 136.35C113.77 135.977 114.171 135.683 114.647 135.468C115.123 135.244 115.674 135.132 116.299 135.132C117.121 135.132 117.807 135.314 118.357 135.678C118.917 136.033 119.337 136.504 119.617 137.092C119.897 137.671 120.037 138.296 120.037 138.968V139.668H113.303V138.478H118.819L118.217 139.066C118.217 138.581 118.147 138.165 118.007 137.82C117.867 137.475 117.653 137.209 117.363 137.022C117.083 136.835 116.729 136.742 116.299 136.742C115.87 136.742 115.506 136.84 115.207 137.036C114.909 137.232 114.68 137.517 114.521 137.89C114.372 138.254 114.297 138.693 114.297 139.206C114.297 139.682 114.372 140.107 114.521 140.48C114.671 140.844 114.899 141.133 115.207 141.348C115.515 141.553 115.907 141.656 116.383 141.656C116.859 141.656 117.247 141.563 117.545 141.376C117.844 141.18 118.035 140.942 118.119 140.662H119.911C119.799 141.185 119.585 141.642 119.267 142.034C118.95 142.426 118.544 142.729 118.049 142.944C117.564 143.159 117.009 143.266 116.383 143.266ZM125.233 143.252C124.701 143.252 124.211 143.154 123.763 142.958C123.315 142.762 122.928 142.487 122.601 142.132C122.274 141.777 122.022 141.367 121.845 140.9C121.668 140.424 121.579 139.911 121.579 139.36V139.066C121.579 138.525 121.663 138.016 121.831 137.54C122.008 137.064 122.251 136.649 122.559 136.294C122.876 135.939 123.254 135.664 123.693 135.468C124.141 135.263 124.636 135.16 125.177 135.16C125.774 135.16 126.297 135.291 126.745 135.552C127.202 135.804 127.566 136.187 127.837 136.7C128.108 137.213 128.257 137.857 128.285 138.632L127.711 137.96V132.78H129.657V143H128.117V139.766H128.453C128.425 140.541 128.266 141.189 127.977 141.712C127.688 142.225 127.305 142.613 126.829 142.874C126.362 143.126 125.83 143.252 125.233 143.252ZM125.667 141.614C126.05 141.614 126.4 141.53 126.717 141.362C127.034 141.185 127.286 140.933 127.473 140.606C127.669 140.27 127.767 139.878 127.767 139.43V138.87C127.767 138.422 127.669 138.049 127.473 137.75C127.277 137.442 127.02 137.209 126.703 137.05C126.386 136.882 126.04 136.798 125.667 136.798C125.247 136.798 124.874 136.901 124.547 137.106C124.23 137.302 123.978 137.582 123.791 137.946C123.614 138.31 123.525 138.735 123.525 139.22C123.525 139.705 123.618 140.13 123.805 140.494C123.992 140.849 124.244 141.124 124.561 141.32C124.888 141.516 125.256 141.614 125.667 141.614Z" fill="url(#paint1_linear_5173_28241)"/>
<path opacity="0.5" d="M180.26 49.0606C181.025 50.0933 181.791 51.126 182.545 52.1772C182.54 52.2396 182.535 52.2903 182.556 52.3263C182.727 52.6282 182.908 52.9248 183.078 53.2278C183.718 54.3719 184.229 55.5735 184.639 56.817C185.211 58.5513 185.557 60.3316 185.682 62.1543C185.83 64.3037 185.669 66.4306 185.19 68.5307C184.726 70.5642 183.989 72.4955 182.974 74.3202C182.022 76.0328 180.866 77.5924 179.49 78.9881C179.285 79.1954 179.072 79.3939 178.864 79.5978C178.824 79.6371 178.75 79.6813 178.859 79.729C177.522 80.7203 176.185 81.7117 174.83 82.692C174.591 82.6836 174.442 82.8474 174.267 82.9418C173.154 83.5413 172 84.0423 170.801 84.4432C169.529 84.8689 168.228 85.1694 166.9 85.3586C164.918 85.6409 162.935 85.6408 160.953 85.3908C159.678 85.23 158.428 84.9481 157.201 84.5667C155.747 84.1146 154.354 83.5187 153.026 82.7756C151.558 81.9547 150.204 80.9746 148.964 79.8383C148.291 79.222 147.659 78.566 147.074 77.8673C146.675 77.3901 146.318 76.8776 145.941 76.3813C145.423 75.6977 144.983 74.9627 144.576 74.2105C143.876 72.9174 143.31 71.5668 142.882 70.1577C142.4 68.573 142.108 66.9559 141.998 65.304C141.894 63.7252 142.02 62.1581 142.248 60.5977C142.475 59.0465 142.726 57.4988 142.954 55.9478C143.111 54.8834 143.249 53.8163 143.391 52.7497C143.541 51.6188 143.628 50.4826 143.654 49.3422C143.692 47.7345 143.576 46.1392 143.241 44.5643C142.66 41.8329 141.444 39.3894 139.841 37.126C139.482 36.619 139.077 36.1448 138.704 35.647C138.157 34.9157 137.557 34.2293 136.941 33.5563C136.082 32.6189 135.162 31.7483 134.161 30.9645C132.938 30.0073 131.619 29.2164 130.177 28.6315C128.876 28.1038 127.52 27.7814 126.14 27.5675C125.115 27.4087 124.084 27.2875 123.051 27.1899C121.26 27.0205 119.465 26.9045 117.675 26.7227C116.654 26.619 115.635 26.4651 114.627 26.2709C112.688 25.8974 110.859 25.2057 109.136 24.2392C107.668 23.4154 106.324 22.4256 105.126 21.2399C104.919 21.0352 104.721 20.8219 104.517 20.615C104.48 20.5776 104.437 20.4996 104.379 20.5987C103.568 19.5053 102.757 18.4118 101.958 17.3002C101.957 17.2305 101.956 17.1735 101.932 17.1281C101.627 16.5363 101.29 15.9586 101.014 15.3533C100.154 13.4676 99.5865 11.4935 99.2928 9.44059C98.8831 6.57566 98.9899 3.73093 99.6184 0.904971C100.198 -1.70286 101.185 -4.14321 102.624 -6.39758C103.579 -7.89472 104.697 -9.25761 106.005 -10.4614C106.109 -10.5566 106.211 -10.6532 106.308 -10.7552C106.362 -10.8129 106.346 -10.8534 106.26 -10.8494C106.323 -10.8963 106.386 -10.9432 106.462 -10.9761C106.643 -11.0032 106.802 -11.1411 106.852 -11.2885C107.551 -11.807 108.251 -12.3255 108.978 -12.836C109.058 -12.8425 109.117 -12.8453 109.16 -12.8735C109.994 -13.4243 110.879 -13.8829 111.788 -14.2907C114.246 -15.3932 116.825 -16.0179 119.514 -16.1689C121.549 -16.2832 123.562 -16.1245 125.554 -15.6832C127.349 -15.2857 129.067 -14.6772 130.71 -13.8592C131.808 -13.3129 132.848 -12.6703 133.836 -11.9431C134.868 -11.1833 135.829 -10.343 136.705 -9.40724C136.846 -9.2565 136.98 -9.09894 137.121 -8.94816C137.156 -8.91039 137.2 -8.83135 137.258 -8.93154C137.99 -7.94433 138.723 -6.95712 139.444 -5.94864C139.447 -5.8747 139.451 -5.81668 139.476 -5.77014C139.801 -5.16721 140.151 -4.57666 140.452 -3.96225C141.506 -1.81345 142.147 0.459159 142.451 2.83117C142.744 5.12504 142.645 7.40433 142.176 9.66491C141.929 10.8535 141.634 12.0323 141.355 13.214C140.943 14.9562 140.518 16.6953 140.363 18.4858C140.288 19.351 140.263 20.2175 140.332 21.0829C140.506 23.2519 141.159 25.2829 142.118 27.2256C142.776 28.5597 143.556 29.8214 144.402 31.0403C144.976 31.8675 145.545 32.7026 146.225 33.4514C146.636 33.9029 147.031 34.3686 147.45 34.811C148.268 35.6732 149.178 36.4306 150.152 37.1097C151.905 38.3327 153.827 39.2081 155.862 39.8466C157.881 40.4799 159.953 40.874 162.035 41.2235C162.965 41.3797 163.901 41.5102 164.833 41.6603C166.071 41.8599 167.313 42.0408 168.545 42.2785C169.824 42.5255 171.06 42.9364 172.261 43.4422C173.838 44.106 175.324 44.9313 176.706 45.9437C177.778 46.7292 178.775 47.598 179.688 48.5629C179.836 48.7197 179.975 48.8857 180.122 49.0439C180.157 49.0817 180.201 49.1607 180.26 49.0606Z" fill="#CC203B" fill-opacity="0.25"/>
<path opacity="0.25" d="M174.26 97.0606C175.025 98.0933 175.791 99.126 176.545 100.177C176.54 100.24 176.535 100.29 176.556 100.326C176.727 100.628 176.908 100.925 177.078 101.228C177.718 102.372 178.229 103.573 178.639 104.817C179.211 106.551 179.557 108.332 179.682 110.154C179.83 112.304 179.669 114.431 179.19 116.531C178.726 118.564 177.989 120.495 176.974 122.32C176.022 124.033 174.866 125.592 173.49 126.988C173.285 127.195 173.072 127.394 172.864 127.598C172.824 127.637 172.75 127.681 172.859 127.729C171.522 128.72 170.185 129.712 168.83 130.692C168.591 130.684 168.442 130.847 168.267 130.942C167.154 131.541 166 132.042 164.801 132.443C163.529 132.869 162.228 133.169 160.9 133.359C158.918 133.641 156.935 133.641 154.953 133.391C153.678 133.23 152.428 132.948 151.201 132.567C149.747 132.115 148.354 131.519 147.026 130.776C145.558 129.955 144.204 128.975 142.964 127.838C142.291 127.222 141.659 126.566 141.074 125.867C140.675 125.39 140.318 124.878 139.941 124.381C139.423 123.698 138.983 122.963 138.576 122.21C137.876 120.917 137.31 119.567 136.882 118.158C136.4 116.573 136.108 114.956 135.998 113.304C135.894 111.725 136.02 110.158 136.248 108.598C136.475 107.046 136.726 105.499 136.954 103.948C137.111 102.883 137.249 101.816 137.391 100.75C137.541 99.6188 137.628 98.4826 137.654 97.3422C137.692 95.7345 137.576 94.1392 137.241 92.5643C136.66 89.8329 135.444 87.3894 133.841 85.126C133.482 84.619 133.077 84.1448 132.704 83.647C132.157 82.9157 131.557 82.2293 130.941 81.5563C130.082 80.6189 129.162 79.7483 128.161 78.9645C126.938 78.0073 125.619 77.2164 124.177 76.6315C122.876 76.1038 121.52 75.7814 120.14 75.5675C119.115 75.4087 118.084 75.2875 117.051 75.1899C115.26 75.0205 113.465 74.9045 111.675 74.7227C110.654 74.619 109.635 74.4651 108.627 74.2709C106.688 73.8974 104.859 73.2057 103.136 72.2392C101.668 71.4154 100.324 70.4256 99.1262 69.2399C98.9195 69.0352 98.7213 68.8219 98.5167 68.615C98.4798 68.5776 98.4366 68.4996 98.3787 68.5987C97.568 67.5053 96.7572 66.4118 95.9576 65.3002C95.9572 65.2305 95.956 65.1735 95.9325 65.1281C95.6265 64.5363 95.2902 63.9586 95.0142 63.3533C94.154 61.4676 93.5865 59.4935 93.2928 57.4406C92.8831 54.5757 92.9899 51.7309 93.6184 48.905C94.1983 46.2971 95.1847 43.8568 96.6235 41.6024C97.579 40.1053 98.6965 38.7424 100.005 37.5386C100.109 37.4434 100.211 37.3468 100.308 37.2448C100.362 37.1871 100.346 37.1466 100.26 37.1506C100.323 37.1037 100.386 37.0568 100.462 37.0239C100.643 36.9968 100.802 36.8589 100.852 36.7115C101.551 36.193 102.251 35.6745 102.978 35.164C103.058 35.1575 103.117 35.1547 103.16 35.1265C103.994 34.5757 104.879 34.1171 105.788 33.7093C108.246 32.6068 110.825 31.9821 113.514 31.8311C115.549 31.7168 117.562 31.8755 119.554 32.3168C121.349 32.7143 123.067 33.3228 124.71 34.1408C125.808 34.6871 126.848 35.3297 127.836 36.0569C128.868 36.8167 129.829 37.657 130.705 38.5928C130.846 38.7435 130.98 38.9011 131.121 39.0518C131.156 39.0896 131.2 39.1686 131.258 39.0685C131.99 40.0557 132.723 41.0429 133.444 42.0514C133.447 42.1253 133.451 42.1833 133.476 42.2299C133.801 42.8328 134.151 43.4233 134.452 44.0378C135.506 46.1865 136.147 48.4592 136.451 50.8312C136.744 53.125 136.645 55.4043 136.176 57.6649C135.929 58.8535 135.634 60.0323 135.355 61.214C134.943 62.9562 134.518 64.6953 134.363 66.4858C134.288 67.351 134.263 68.2175 134.332 69.0829C134.506 71.2519 135.159 73.2829 136.118 75.2256C136.776 76.5597 137.556 77.8214 138.402 79.0403C138.976 79.8675 139.545 80.7026 140.225 81.4514C140.636 81.9029 141.031 82.3686 141.45 82.811C142.268 83.6732 143.178 84.4306 144.152 85.1097C145.905 86.3327 147.827 87.2081 149.862 87.8466C151.881 88.4799 153.953 88.874 156.035 89.2235C156.965 89.3797 157.901 89.5102 158.833 89.6603C160.071 89.8599 161.313 90.0408 162.545 90.2785C163.824 90.5255 165.06 90.9364 166.261 91.4422C167.838 92.106 169.324 92.9313 170.706 93.9437C171.778 94.7292 172.775 95.598 173.688 96.5629C173.836 96.7197 173.975 96.8857 174.122 97.0439C174.157 97.0817 174.201 97.1607 174.26 97.0606Z" fill="#CC203B" fill-opacity="0.25"/>
<path opacity="0.5" d="M63.2595 215.061C64.0253 216.093 64.7911 217.126 65.5454 218.177C65.5404 218.24 65.535 218.29 65.5555 218.326C65.7271 218.628 65.908 218.925 66.0775 219.228C66.7177 220.372 67.2288 221.573 67.6391 222.817C68.2112 224.551 68.5567 226.332 68.6819 228.154C68.8296 230.304 68.669 232.431 68.1901 234.531C67.7264 236.564 66.9893 238.495 65.9745 240.32C65.0221 242.033 63.8658 243.592 62.4895 244.988C62.2852 245.195 62.0719 245.394 61.8641 245.598C61.824 245.637 61.7503 245.681 61.859 245.729C60.522 246.72 59.185 247.712 57.8299 248.692C57.5907 248.684 57.4422 248.847 57.267 248.942C56.1539 249.541 54.9996 250.042 53.8013 250.443C52.5291 250.869 51.2279 251.169 49.8997 251.359C47.9181 251.641 45.9352 251.641 43.9526 251.391C42.6782 251.23 41.4283 250.948 40.2014 250.567C38.7471 250.115 37.354 249.519 36.0256 248.776C34.5581 247.955 33.2041 246.975 31.964 245.838C31.2914 245.222 30.6586 244.566 30.0741 243.867C29.675 243.39 29.318 242.878 28.9415 242.381C28.4227 241.698 27.9829 240.963 27.5759 240.21C26.8764 238.917 26.3098 237.567 25.8817 236.158C25.4002 234.573 25.1077 232.956 24.9983 231.304C24.8937 229.725 25.0203 228.158 25.2481 226.598C25.4746 225.046 25.7261 223.499 25.9543 221.948C26.111 220.883 26.2493 219.816 26.391 218.75C26.5413 217.619 26.6276 216.483 26.6542 215.342C26.6918 213.735 26.5761 212.139 26.2411 210.564C25.6601 207.833 24.4437 205.389 22.8408 203.126C22.4817 202.619 22.0767 202.145 21.7041 201.647C21.1567 200.916 20.5573 200.229 19.941 199.556C19.0824 198.619 18.162 197.748 17.1607 196.964C15.9381 196.007 14.6186 195.216 13.1766 194.631C11.876 194.104 10.5202 193.781 9.13987 193.567C8.11531 193.409 7.08355 193.287 6.05116 193.19C4.26045 193.021 2.46451 192.904 0.675189 192.723C-0.346014 192.619 -1.36535 192.465 -2.37337 192.271C-4.31225 191.897 -6.14052 191.206 -7.8636 190.239C-9.33224 189.415 -10.6764 188.426 -11.8738 187.24C-12.0805 187.035 -12.2787 186.822 -12.4833 186.615C-12.5202 186.578 -12.5634 186.5 -12.6213 186.599C-13.432 185.505 -14.2428 184.412 -15.0424 183.3C-15.0428 183.23 -15.044 183.174 -15.0675 183.128C-15.3735 182.536 -15.7098 181.959 -15.9858 181.353C-16.846 179.468 -17.4135 177.493 -17.7072 175.441C-18.1169 172.576 -18.0101 169.731 -17.3816 166.905C-16.8017 164.297 -15.8153 161.857 -14.3765 159.602C-13.421 158.105 -12.3035 156.742 -10.9949 155.539C-10.8915 155.443 -10.7889 155.347 -10.6924 155.245C-10.6378 155.187 -10.6539 155.147 -10.74 155.151C-10.6768 155.104 -10.6135 155.057 -10.5382 155.024C-10.3575 154.997 -10.1976 154.859 -10.1479 154.712C-9.44861 154.193 -8.74928 153.674 -8.02178 153.164C-7.94196 153.157 -7.88251 153.155 -7.83984 153.126C-7.00609 152.576 -6.12142 152.117 -5.21221 151.709C-2.75369 150.607 -0.175109 149.982 2.51428 149.831C4.54854 149.717 6.56164 149.876 8.55388 150.317C10.349 150.714 12.0666 151.323 13.7104 152.141C14.8083 152.687 15.8482 153.33 16.8361 154.057C17.8682 154.817 18.8286 155.657 19.7048 156.593C19.8459 156.743 19.9798 156.901 20.1209 157.052C20.1562 157.09 20.2004 157.169 20.2585 157.068C20.9905 158.056 21.7225 159.043 22.4439 160.051C22.4469 160.125 22.4507 160.183 22.4758 160.23C22.8008 160.833 23.1507 161.423 23.452 162.038C24.5058 164.187 25.1474 166.459 25.4509 168.831C25.7444 171.125 25.6445 173.404 25.1755 175.665C24.9289 176.854 24.6341 178.032 24.3549 179.214C23.9434 180.956 23.5177 182.695 23.3631 184.486C23.2883 185.351 23.2628 186.217 23.3322 187.083C23.5062 189.252 24.1593 191.283 25.1176 193.226C25.7756 194.56 26.5565 195.821 27.4021 197.04C27.976 197.868 28.5451 198.703 29.2255 199.451C29.6357 199.903 30.0307 200.369 30.4503 200.811C31.268 201.673 32.178 202.431 33.1518 203.11C34.9054 204.333 36.8267 205.208 38.8619 205.847C40.8807 206.48 42.9528 206.874 45.0346 207.223C45.9654 207.38 46.9006 207.51 47.8325 207.66C49.0711 207.86 50.3134 208.041 51.5447 208.278C52.8244 208.525 54.0604 208.936 55.2613 209.442C56.8376 210.106 58.3241 210.931 59.7059 211.944C60.778 212.729 61.7749 213.598 62.6881 214.563C62.8365 214.72 62.975 214.886 63.1219 215.044C63.1571 215.082 63.2014 215.161 63.2595 215.061Z" fill="#CC203B" fill-opacity="0.25"/>
</g>
</g>
<defs>
<filter id="filter0_d_5173_28241" x="0" y="0" width="168" height="243" filterUnits="userSpaceOnUse" color-interpolation-filters="sRGB">
<feFlood flood-opacity="0" result="BackgroundImageFix"/>
<feColorMatrix in="SourceAlpha" type="matrix" values="0 0 0 0 0 0 0 0 0 0 0 0 0 0 0 0 0 0 127 0" result="hardAlpha"/>
<feMorphology radius="5" operator="dilate" in="SourceAlpha" result="effect1_dropShadow_5173_28241"/>
<feOffset/>
<feGaussianBlur stdDeviation="2"/>
<feComposite in2="hardAlpha" operator="out"/>
<feColorMatrix type="matrix" values="0 0 0 0 0.8 0 0 0 0 0.12549 0 0 0 0 0.231373 0 0 0 0.8 0"/>
<feBlend mode="normal" in2="BackgroundImageFix" result="effect1_dropShadow_5173_28241"/>
<feBlend mode="normal" in="SourceGraphic" in2="effect1_dropShadow_5173_28241" result="shape"/>
</filter>
<linearGradient id="paint0_linear_5173_28241" x1="124.493" y1="183.838" x2="-39.5724" y2="149.329" gradientUnits="userSpaceOnUse">
<stop stop-color="white"/>
<stop offset="0.85" stop-color="#EBE8E8"/>
</linearGradient>
<linearGradient id="paint1_linear_5173_28241" x1="129.5" y1="147" x2="78.5" y2="147" gradientUnits="userSpaceOnUse">
<stop stop-color="#CC203B"/>
<stop offset="1" stop-color="#FA3A58"/>
</linearGradient>
<clipPath id="clip0_5173_28241">
<path d="M9 29C9 17.9543 17.9543 9 29 9H139C150.046 9 159 17.9543 159 29V214C159 225.046 150.046 234 139 234H29C17.9543 234 9 225.046 9 214V29Z" fill="white"/>
</clipPath>
<clipPath id="clip1_5173_28241">
<rect width="28" height="28" fill="white" transform="translate(70 91)"/>
</clipPath>
</defs>
</svg>
