<svg width="398" height="398" viewBox="0 0 398 398" fill="none" xmlns="http://www.w3.org/2000/svg">
<g clip-path="url(#clip0_3908_22179)">
<g style="mix-blend-mode:exclusion">
<path d="M132.11 267.226C138.481 270.429 146.382 267.796 149.549 261.283L183.645 192.843L160.369 181.205L126.167 249.609C122.963 256.122 125.597 264.023 132.11 267.191V267.226Z" fill="#28DAC6" style="mix-blend-mode:color-dodge"/>
</g>
<g style="mix-blend-mode:exclusion">
<path d="M128.804 273.739C138.912 278.722 151.119 274.7 156.102 264.593L222.05 132.269L228.421 119.527L229.951 116.467L236.037 104.152L239.774 96.5362L203.33 78.3853L199.451 86.0015L193.899 97.0701L191.834 101.376L185.464 114.118L119.658 246.442C114.675 256.407 118.697 268.757 128.804 273.739ZM203.33 87.959L199.878 95.0414L196.426 101.981L195.749 103.37L193.116 101.981L196.034 96.1447L200.732 86.7133L203.366 87.959H203.33ZM208.597 90.5927L206.533 94.6143L204.042 99.597L200.981 105.968L198.347 104.58L200.554 100.131L203.33 94.5788L205.964 89.1691L208.597 90.5571V90.5927ZM213.865 93.2263L212.477 95.86L210.27 100.309L206.248 108.494L203.615 107.249L207.352 99.7749L209.558 95.077L211.231 91.8739L213.865 93.2619V93.2263ZM218.99 95.7176L217.886 98.2089L215.68 102.658L211.373 111.093L208.74 109.847L213.046 101.27L215.253 96.8209L216.498 94.472L218.99 95.7176ZM224.257 98.3513L222.584 101.804L220.235 106.501L216.641 113.691L214.007 112.445L218.029 104.259L220.235 99.8105L221.623 97.0345L224.257 98.2801V98.3513ZM224.542 117.606L228.279 109.989L232.158 102.373L234.792 103.619L229.524 114.011L227.175 118.994L224.542 117.606ZM219.274 114.972L222.193 109.277L224.684 104.01L226.891 99.7037L229.524 100.949L226.606 106.751L223.688 112.694L221.872 116.289L219.239 114.901L219.274 114.972ZM123.964 248.648L189.913 116.36L217.637 130.204L151.796 262.386C147.916 270.145 138.627 273.205 131.011 269.469C123.395 265.589 120.192 256.3 123.929 248.684L123.964 248.648Z" fill="#28DAC6" style="mix-blend-mode:color-dodge"/>
</g>
<g style="mix-blend-mode:exclusion">
<path d="M243.945 221.351L258.217 263.881C259.605 267.76 263.911 269.967 267.933 268.579C271.955 267.333 274.161 262.884 272.773 258.898L258.502 216.368L243.945 221.351Z" fill="#28DAC6" style="mix-blend-mode:color-dodge"/>
</g>
<g style="mix-blend-mode:exclusion">
<path d="M219.273 160.954L220.804 165.652L223.153 172.45L223.971 175.226L226.605 183.127L254.187 265.127C256.252 271.355 263.049 274.843 269.278 272.743C275.506 270.679 278.994 263.881 276.894 257.653L249.311 175.511L246.678 167.61L246.002 165.652L243.51 158.036L241.838 153.338L219.273 160.954ZM231.196 167.04L232.869 172.165L231.338 172.735L229.666 168.037L228.705 165.261L228.135 163.197L229.666 162.627L230.235 164.3L231.196 167.076V167.04ZM234.364 165.795L236.179 171.062L234.506 171.631L232.691 166.364L231.872 163.588L231.303 162.058L232.976 161.631L233.403 163.161L234.364 165.795ZM236.855 162.627L237.816 165.546L239.346 169.994L237.816 170.564L236.001 165.581L235.182 162.805L234.613 161.132L236.143 160.563L236.819 162.627H236.855ZM240.592 163.019L241.838 166.613L242.656 168.962L240.983 169.532L239.738 165.937L238.777 162.734L237.816 159.958L239.489 159.388L240.592 162.983V163.019ZM245.859 167.894L244.187 168.464L242.656 163.766L240.983 158.926L242.656 158.356L244.863 164.869L245.824 167.93L245.859 167.894ZM229.381 182.166L246.571 176.472L274.153 258.471C275.684 263.169 273.192 268.437 268.459 269.967C263.619 271.64 258.494 269.006 256.963 264.272L229.381 182.131V182.166ZM225.929 167.61L224.825 164.3L226.498 163.73L227.317 166.222L228.278 169.425L229.666 173.304L227.993 173.874L227.174 171.098L225.929 167.645V167.61ZM221.622 165.403L223.153 164.834L224.683 169.283L226.071 173.589L226.356 174.407L224.825 174.977L223.58 171.382L221.658 165.439L221.622 165.403Z" fill="#28DAC6" style="mix-blend-mode:color-dodge"/>
</g>
</g>
<g opacity="0.9" filter="url(#filter0_d_3908_22179)">
<path d="M199 373C295.098 373 373 295.098 373 199C373 102.902 295.098 25 199 25C102.902 25 25 102.902 25 199C25 295.098 102.902 373 199 373Z" stroke="#8ECDD8" stroke-width="3.77285" stroke-miterlimit="10"/>
</g>
<defs>
<filter id="filter0_d_3908_22179" x="0.480112" y="0.47645" width="397.04" height="397.047" filterUnits="userSpaceOnUse" color-interpolation-filters="sRGB">
<feFlood flood-opacity="0" result="BackgroundImageFix"/>
<feColorMatrix in="SourceAlpha" type="matrix" values="0 0 0 0 0 0 0 0 0 0 0 0 0 0 0 0 0 0 127 0" result="hardAlpha"/>
<feOffset/>
<feGaussianBlur stdDeviation="11.3185"/>
<feColorMatrix type="matrix" values="0 0 0 0 0.882353 0 0 0 0 0.882353 0 0 0 0 0.882353 0 0 0 0.9 0"/>
<feBlend mode="normal" in2="BackgroundImageFix" result="effect1_dropShadow_3908_22179"/>
<feBlend mode="normal" in="SourceGraphic" in2="effect1_dropShadow_3908_22179" result="shape"/>
</filter>
<clipPath id="clip0_3908_22179">
<rect width="159.978" height="197.489" fill="white" transform="translate(117.523 78.3853)"/>
</clipPath>
</defs>
</svg>
