<svg width="398" height="398" viewBox="0 0 398 398" fill="none" xmlns="http://www.w3.org/2000/svg">
<g clip-path="url(#clip0_3908_22191)">
<g style="mix-blend-mode:exclusion">
<path d="M158.854 261.744C155.046 265.694 151.345 269.431 147.145 272.634C143.052 275.802 138.746 278.542 133.586 279.645C125.969 281.282 114.331 274.485 115.684 264.377C116.325 259.679 119.136 256.441 122.695 253.7C125.542 251.529 125.578 251.529 122.339 249.821C119.35 248.255 116.574 246.405 114.26 243.878C108.708 237.792 109.207 228.823 115.577 223.591C116.752 222.631 116.894 221.563 116.894 220.246C116.894 198.358 116.894 176.435 116.858 154.547C116.858 152.27 117.463 150.419 118.851 148.604C124.332 141.45 129.671 134.19 135.116 127.001C136.006 125.827 136.397 124.616 136.397 123.157C136.326 118.281 136.362 113.37 136.397 108.494C136.397 104.473 137.572 103.298 141.593 103.298C159.922 103.298 178.286 103.298 196.615 103.298C200.815 103.298 201.918 104.401 201.918 108.601C201.918 113.37 201.953 118.139 201.918 122.873C201.918 124.474 202.309 125.791 203.306 127.072C208.787 134.297 214.196 141.593 219.677 148.817C220.887 150.419 221.492 152.056 221.421 154.085C221.314 159.21 221.421 164.37 221.35 169.495C221.35 170.812 221.706 171.381 223.129 171.524C230.14 172.236 236.262 175.189 241.992 179.104C242.49 179.46 242.988 180.172 243.629 179.923C244.412 179.567 244.056 178.677 244.02 178.037C243.878 174.015 242.739 170.171 241.458 166.363C239.821 161.559 237.863 156.861 237.08 151.807C236.013 144.974 237.365 138.568 240.248 132.375C240.675 131.414 241.244 131.129 242.17 131.699C242.241 131.699 242.277 131.77 242.348 131.77C246.903 133.799 246.974 133.799 245.231 138.425C243.06 144.262 243.202 150.099 245.124 155.935C246.761 160.989 248.896 165.901 250.035 171.132C250.249 172.129 250.569 173.125 250.605 174.122C250.676 175.723 251.352 175.688 252.562 175.118C256.584 173.161 260.783 171.737 265.303 171.453C275.126 170.848 282.778 175.012 288.686 182.592C294.38 189.888 297.156 198.394 298.615 207.434C300.573 219.712 298.829 231.457 293.063 242.525C289.291 249.786 284.166 255.943 277.332 260.569C275.909 261.53 276.016 261.993 277.332 262.918C281.105 265.516 284.664 268.363 287.867 271.673C289.291 273.132 290.572 274.734 291.533 276.513C294.024 281.176 292.743 285.589 288.116 288.151C283.917 290.5 279.254 291.105 274.592 291.639C265.73 292.636 256.868 292.529 247.971 291.995C228.005 290.749 208.182 288.578 188.75 283.667C184.621 282.635 180.6 281.247 176.649 279.645C166.364 275.446 162.983 272.065 158.854 261.779V261.744ZM249.679 191.881C249.75 192.095 249.822 192.308 249.893 192.557C252.206 188.037 254.484 190.707 256.762 192.023C256.868 192.095 256.975 192.166 257.082 192.201C258.114 192.664 258.114 193.305 257.509 194.159C256.477 195.618 255.267 196.899 253.843 198.002C246.619 203.554 235.692 201.882 230.568 194.408C230.212 193.91 229.5 193.233 230.176 192.771C231.706 191.668 233.344 190.564 235.087 189.888C236.333 189.39 236.618 191.134 237.365 191.774C240.711 194.764 241.814 194.479 242.846 190.173C242.917 189.852 242.953 189.532 243.024 189.247C243.166 188.714 243.06 188.322 242.526 187.966C239.145 185.617 235.87 183.126 232.134 181.311C220.247 175.51 210.103 178.143 202.986 189.247C196.437 199.497 194.693 210.886 195.761 222.844C195.903 224.339 196.544 224.873 197.932 225.193C203.128 226.332 208.217 227.969 213.2 229.891C231.991 237.151 250.071 245.942 267.332 256.334C268.649 257.117 269.681 257.188 270.997 256.441C274.201 254.555 277.119 252.312 279.646 249.608C295.376 232.738 295.91 208.252 285.554 190.208C282.493 184.834 278.293 180.492 271.994 178.998C264.556 177.254 258.007 179.709 251.815 183.624C251.352 183.909 251.067 184.336 250.996 184.87C250.569 187.219 250.177 189.568 249.786 191.952L249.679 191.881ZM259.716 285.304C261.744 285.304 263.773 285.411 265.801 285.304C271.318 284.984 276.834 284.77 282.173 283.169C286.479 281.852 286.764 280.784 283.774 277.403C280.286 273.488 276.051 270.463 271.852 267.402C270.499 266.406 270.037 266.869 269.752 268.257C269.538 269.253 269.254 270.214 268.933 271.175C267.011 276.834 268.791 276.264 262.42 274.592C261.175 274.271 260.926 273.666 261.281 272.527C262.1 269.858 262.741 267.118 263.666 264.52C264.2 262.954 263.808 262.206 262.42 261.388C246.69 252.17 230.354 244.127 213.413 237.365C211.776 236.724 211.1 236.973 210.602 238.717C208.644 245.764 206.58 252.739 204.551 259.751C203.235 264.306 203.27 264.271 198.679 262.954C197.149 262.527 196.508 261.886 197.149 260.285C197.54 259.288 197.754 258.22 198.074 257.188C200.103 250.106 202.167 243.059 204.196 235.977C204.445 235.123 204.907 234.268 203.555 233.877C197.22 232.097 190.885 230.318 184.194 230.247C177.539 230.176 173.161 233.343 170.492 239.215C168.179 244.34 166.613 249.679 165.901 255.266C165.082 261.423 167.075 266.37 172.485 269.751C174.656 271.104 176.898 272.243 179.247 273.204C193.341 278.827 208.217 280.891 223.165 282.813C224.268 282.955 224.624 282.492 224.873 281.567C225.407 279.61 225.976 277.652 226.546 275.695C227.934 270.712 227.934 270.748 232.916 272.349C234.162 272.741 234.518 273.31 234.127 274.556C233.308 277.083 232.667 279.681 231.884 282.208C231.528 283.311 231.706 283.738 232.988 283.88C241.885 284.735 250.818 285.304 259.751 285.34L259.716 285.304ZM146.184 204.017C140.454 203.946 137.927 207.113 139.102 212.31C140.098 216.651 142.554 220.175 145.295 223.556C146.433 224.979 146.861 226.474 145.793 228.111C144.761 229.677 143.195 229.784 141.558 229.393C140.027 229.001 138.497 228.538 136.931 228.218C132.66 227.328 128.354 226.403 123.941 227.293C120.987 227.862 118.745 229.286 117.784 232.275C116.823 235.229 117.855 237.614 119.883 239.714C121.307 241.208 123.015 242.276 124.83 243.237C128.247 245.088 131.913 246.369 135.614 247.508C138.07 248.255 139.173 249.358 139.138 251.138C139.138 253.309 137.643 254.163 135.828 254.768C133.55 255.515 131.308 256.476 129.208 257.686C127.001 258.968 124.937 260.462 123.549 262.669C121.983 265.16 122.161 267.438 124.047 269.645C126.503 272.492 130.525 273.559 134.084 272.349C135.721 271.78 137.216 270.997 138.675 270.107C144.939 266.121 150.099 260.89 155.189 255.551C158.142 252.455 160.313 249.003 161.096 244.732C161.346 243.308 161.844 241.92 162.271 240.532C162.556 239.642 162.591 238.788 162.449 237.899C161.63 232.062 160.598 226.261 158.89 220.602C157.573 216.224 156.078 211.918 153.445 208.11C151.558 205.405 149.031 203.982 146.184 204.053V204.017ZM168.214 229.891C170.065 227.969 171.916 226.439 174.122 225.442C175.226 224.944 175.51 224.161 175.51 223.022C175.51 209.961 175.475 196.899 175.51 183.802C175.51 182.272 174.941 181.845 173.482 181.845C157.609 181.845 141.771 181.88 125.898 181.845C124.297 181.845 123.834 182.45 123.87 183.98C123.941 189.568 123.87 195.155 123.87 200.743C123.87 206.651 123.87 212.559 123.87 218.431C123.87 219.534 124.012 220.353 125.4 220.175C128.069 219.783 130.703 220.175 133.336 220.531C134.582 220.709 134.618 220.21 134.191 219.25C133.586 217.862 132.945 216.438 132.553 214.979C131.343 210.53 131.415 206.153 134.262 202.273C139.315 195.404 151.345 195.298 157.324 202.024C161.452 206.651 163.552 212.274 165.332 218.075C166.506 221.883 167.289 225.762 168.179 229.926L168.214 229.891ZM182.486 189.247C182.486 199.07 182.486 208.929 182.486 218.751C182.486 224.09 181.81 223.058 187.077 223.271C187.148 223.271 187.219 223.271 187.255 223.271C188.394 223.378 188.821 222.951 188.714 221.705C187.824 211.242 189.533 201.206 193.768 191.632C197.683 182.734 203.484 175.581 213.2 172.449C214.303 172.093 214.41 171.346 214.41 170.385C214.41 166.256 214.339 162.128 214.41 158C214.445 156.185 213.876 155.615 212.025 155.615C203.021 155.686 194.017 155.651 184.977 155.651C182.45 155.651 182.415 155.651 182.415 158.178C182.415 168.534 182.415 178.855 182.415 189.212L182.486 189.247ZM149.886 155.686C141.878 155.686 133.906 155.722 125.898 155.686C124.297 155.686 123.834 156.22 123.834 157.786C123.905 162.875 123.905 167.929 123.834 173.018C123.834 174.371 124.225 174.94 125.685 174.94C141.664 174.905 157.644 174.905 173.624 174.94C175.048 174.94 175.475 174.442 175.475 173.054C175.403 168.107 175.368 163.16 175.475 158.213C175.51 156.327 175.048 155.686 173.055 155.722C165.332 155.829 157.573 155.757 149.85 155.757L149.886 155.686ZM127.393 148.817C128.176 148.889 128.532 148.924 128.923 148.924C144.44 148.924 159.993 148.924 175.51 148.924C176.827 148.924 177.574 148.355 178.322 147.358C182.272 142.02 186.294 136.717 190.28 131.379C190.6 130.951 191.134 130.596 191.027 129.919C190.351 129.599 189.639 129.741 188.963 129.741C175.581 129.741 162.2 129.991 148.818 129.599C143.586 129.457 140.098 130.738 137.322 135.329C134.511 139.956 130.881 144.084 127.393 148.782V148.817ZM169.14 122.766C177.076 122.766 184.977 122.766 192.914 122.766C194.337 122.766 195.013 122.374 194.942 120.844C194.871 117.926 194.871 115.007 194.942 112.089C194.942 110.808 194.515 110.274 193.198 110.274C177.147 110.274 161.096 110.274 145.081 110.274C143.729 110.274 143.302 110.808 143.337 112.089C143.408 114.829 143.337 117.534 143.337 120.275C143.337 122.766 143.337 122.766 145.9 122.766C153.623 122.766 161.381 122.766 169.104 122.766H169.14ZM198.466 148.924C202.06 148.924 205.69 148.924 209.285 148.924C209.712 148.924 210.246 149.138 210.495 148.64C210.708 148.177 210.21 147.857 209.961 147.501C206.473 142.838 202.95 138.212 199.498 133.514C198.608 132.304 198.074 132.482 197.256 133.585C193.839 138.212 190.351 142.803 186.899 147.429C186.614 147.785 186.009 148.177 186.365 148.711C186.614 149.102 187.184 148.924 187.611 148.924C191.205 148.924 194.835 148.924 198.43 148.924H198.466Z" fill="#28DAC6" style="mix-blend-mode:color-dodge"/>
</g>
<path style="mix-blend-mode:color-dodge" d="M261.975 142.412C267.491 142.518 271.94 144.903 275.214 149.53C276.673 151.629 276.638 153.017 275.214 155.117C268.879 164.62 254.359 164.584 248.024 155.046C246.778 153.195 246.707 151.416 248.024 149.601C251.405 144.867 255.96 142.447 261.939 142.412H261.975ZM261.69 149.245C259.626 149.458 257.633 149.921 255.925 151.273C254.999 151.985 254.964 152.59 255.889 153.373C258.914 156.007 264.608 155.936 267.634 153.266C268.523 152.484 268.345 151.985 267.527 151.345C265.818 149.992 263.825 149.494 261.69 149.245Z" fill="url(#paint0_radial_3908_22191)"/>
</g>
<g opacity="0.9" filter="url(#filter0_d_3908_22191)">
<path d="M198.998 372.996C295.095 372.996 372.996 295.095 372.996 198.998C372.996 102.902 295.095 25 198.998 25C102.902 25 25 102.902 25 198.998C25 295.095 102.902 372.996 198.998 372.996Z" stroke="#8ECDD8" stroke-width="3.77281" stroke-miterlimit="10"/>
</g>
<defs>
<filter id="filter0_d_3908_22191" x="0.48035" y="0.47681" width="397.039" height="397.043" filterUnits="userSpaceOnUse" color-interpolation-filters="sRGB">
<feFlood flood-opacity="0" result="BackgroundImageFix"/>
<feColorMatrix in="SourceAlpha" type="matrix" values="0 0 0 0 0 0 0 0 0 0 0 0 0 0 0 0 0 0 127 0" result="hardAlpha"/>
<feOffset/>
<feGaussianBlur stdDeviation="11.3184"/>
<feColorMatrix type="matrix" values="0 0 0 0 0.882353 0 0 0 0 0.882353 0 0 0 0 0.882353 0 0 0 0.9 0"/>
<feBlend mode="normal" in2="BackgroundImageFix" result="effect1_dropShadow_3908_22191"/>
<feBlend mode="normal" in="SourceGraphic" in2="effect1_dropShadow_3908_22191" result="shape"/>
</filter>
<radialGradient id="paint0_radial_3908_22191" cx="0" cy="0" r="1" gradientUnits="userSpaceOnUse" gradientTransform="translate(-16.942 435.6) scale(1025.91 1025.91)">
<stop offset="0.1" stop-color="white"/>
<stop offset="0.47" stop-color="#919191"/>
<stop offset="0.84" stop-color="#292929"/>
<stop offset="1"/>
</radialGradient>
<clipPath id="clip0_3908_22191">
<rect width="189.017" height="189.088" fill="white" transform="translate(110.422 103.298)"/>
</clipPath>
</defs>
</svg>
