<svg width="216" height="1158" viewBox="0 0 216 1158" fill="none" xmlns="http://www.w3.org/2000/svg">
<path d="M145.197 1156.15C126.496 1133 92.3007 1102.96 72.1426 1077.63C46.2043 1045.03 23.8677 991.275 20.5713 948.779C19.2865 932.217 20.1277 913.722 21.826 898.083C33.3142 792.287 124.124 736.039 177.693 654.307C185.932 641.738 192.497 629.82 198.403 614.18C204.037 599.261 207.706 584.193 211.09 570.657C215.03 554.895 215.31 536.031 214.068 522.077C212.676 506.434 209.43 492.939 206.046 479.403C202.662 465.866 195.944 452.381 188.314 438.845C180.481 424.948 168.061 411.824 155.805 400.391C143.487 388.902 125.07 365.436 100.507 340.873C73.8249 314.191 62.4595 300.29 50.1908 285.918C30.077 262.355 17.6436 234.385 13.3976 218.745C-8.5829 137.779 -5.49255 58.6645 65.9989 1.5" stroke="#319892" stroke-width="2" stroke-linecap="round" stroke-dasharray="10 10"/>
</svg>
